<svg xmlns="http://www.w3.org/2000/svg" width="32" height="32" fill="none" viewBox="0 0 32 32">
  <path fill="url(#a)" fill-rule="evenodd" d="m23.018 11.248-.984-1.74-.002-.003.003-.001a3.999 3.999 0 0 1 5.885 4.283 4 4 0 0 1-3.926 3.203H4v-2h19.997v-.002a1.998 1.998 0 1 0-.979-3.74Zm-5.812 14.503L4 21.052v-2.054h14.524v.003a3.498 3.498 0 0 1 2.8 5.567 3.498 3.498 0 0 1-4.118 1.183Zm-7.39-4.753h8.694v.004h.001a1.499 1.499 0 1 1-.527 2.905v-.003l-8.169-2.906Z" clip-rule="evenodd"/>
  <path fill="url(#b)" fill-rule="evenodd" d="m11 7-.743.52.157.894-.894-.158L9 9l-.52-.744-.894.158.158-.894L7 7l.744-.52-.158-.894.894.158L9 5l.52.744.894-.158-.157.894L11 7Zm3.172 4-.744.52.158.894-.894-.157-.52.743-.52-.743-.895.157.158-.894-.743-.52.743-.52-.158-.894.894.158.52-.744.521.744.894-.158-.158.894.744.52Zm5.256.52.744-.52-.744-.52.158-.894-.894.158-.52-.744-.52.744-.895-.158.158.894-.743.52.743.52-.158.894.894-.157.52.743.521-.743.894.157-.158-.894ZM17 7l-.744.52.158.894-.894-.158L15 9l-.52-.744-.894.158.157-.894L13 7l.743-.52-.157-.894.894.158L15 5l.52.744.894-.158-.158.894L17 7Zm-9.744 4.52L8 11l-.744-.52.158-.894-.894.158L6 9l-.52.744-.894-.158.158.894L4 11l.744.52-.158.894.894-.157L6 13l.52-.743.894.157-.158-.894Z" clip-rule="evenodd"/>
  <path fill="url(#c)" fill-rule="evenodd" d="m23.018 11.248-.984-1.74-.002-.003.003-.001a3.999 3.999 0 0 1 5.885 4.283 4 4 0 0 1-3.926 3.203H4v-2h19.997v-.002a1.998 1.998 0 1 0-.979-3.74Zm-5.812 14.503L4 21.052v-2.054h14.524v.003a3.498 3.498 0 0 1 2.8 5.567 3.498 3.498 0 0 1-4.118 1.183Zm-7.39-4.753h8.694v.004h.001a1.499 1.499 0 1 1-.527 2.905v-.003l-8.169-2.906Z" clip-rule="evenodd"/>
  <path fill="url(#d)" fill-rule="evenodd" d="m11 7-.743.52.157.894-.894-.158L9 9l-.52-.744-.894.158.158-.894L7 7l.744-.52-.158-.894.894.158L9 5l.52.744.894-.158-.157.894L11 7Zm3.172 4-.744.52.158.894-.894-.157-.52.743-.52-.743-.895.157.158-.894-.743-.52.743-.52-.158-.894.894.158.52-.744.521.744.894-.158-.158.894.744.52Zm5.256.52.744-.52-.744-.52.158-.894-.894.158-.52-.744-.52.744-.895-.158.158.894-.743.52.743.52-.158.894.894-.157.52.743.521-.743.894.157-.158-.894ZM17 7l-.744.52.158.894-.894-.158L15 9l-.52-.744-.894.158.157-.894L13 7l.743-.52-.157-.894.894.158L15 5l.52.744.894-.158-.158.894L17 7Zm-9.744 4.52L8 11l-.744-.52.158-.894-.894.158L6 9l-.52.744-.894-.158.158.894L4 11l.744.52-.158.894.894-.157L6 13l.52-.743.894.157-.158-.894Z" clip-rule="evenodd"/>
  <defs>
    <linearGradient id="a" x1="16" x2="16" y1="8.988" y2="26" gradientUnits="userSpaceOnUse">
      <stop stop-color="#CED3EA"/>
      <stop offset="1" stop-color="#7E83A9"/>
    </linearGradient>
    <linearGradient id="b" x1="12.086" x2="12.086" y1="5" y2="13" gradientUnits="userSpaceOnUse">
      <stop stop-color="#B2D4F7"/>
      <stop offset="1" stop-color="#D9E2F3"/>
    </linearGradient>
    <linearGradient id="c" x1="16" x2="16" y1="8.988" y2="26" gradientUnits="userSpaceOnUse">
      <stop stop-color="#CED3EA"/>
      <stop offset="1" stop-color="#7E83A9"/>
    </linearGradient>
    <linearGradient id="d" x1="12.086" x2="12.086" y1="5" y2="13" gradientUnits="userSpaceOnUse">
      <stop stop-color="#B2D4F7"/>
      <stop offset="1" stop-color="#D9E2F3"/>
    </linearGradient>
  </defs>
</svg>
