<svg xmlns="http://www.w3.org/2000/svg" width="32" height="32" fill="none" viewBox="0 0 32 32">
  <path fill="url(#a)" fill-rule="evenodd" d="M29.817 8.767c.214-.797.237-1.6.097-2.36a2.812 2.812 0 0 1-4.423.99 2.163 2.163 0 0 1-.803-1.168l-.008-.031a2.812 2.812 0 0 1 2.207-3.7 5.37 5.37 0 0 0-7.285 2.986 10.06 10.06 0 0 1 1.656 1.871 3.386 3.386 0 0 1 1.437-2.742 4.214 4.214 0 0 0 4.21 5.253 3.367 3.367 0 0 1-4.351.17c.098.316.18.638.246.966a6.005 6.005 0 0 1 3.949 1.313 5.364 5.364 0 0 0 3.069-3.548Z" clip-rule="evenodd"/>
  <path fill="url(#b)" fill-rule="evenodd" d="M30 17c0 3.238-2.12 5.963-5 6.762v-2.115c1.731-.725 3-2.495 3-4.647 0-2.83-2.195-5-4.75-5a4.54 4.54 0 0 0-2.04.486 9.247 9.247 0 0 0-.25-1.696l-.003.001C20.009 6.85 16.584 4 12.608 4 7.922 4 4 7.96 4 13c0 3.23 1.61 6.015 4 7.6v2.31C4.45 21.133 2 17.364 2 13 2 6.925 6.75 2 12.608 2c4.861 0 8.958 3.39 10.213 8.014.142-.01.284-.014.428-.014C26.978 10 30 13.134 30 17Zm-19.999 5.41c0-.48.152-1 .36-1.486A9.738 9.738 0 0 1 11.5 19s.664.918 1.109 1.925c.224.507.392 1.037.392 1.484 0 .879-.671 1.591-1.5 1.591-.828 0-1.5-.712-1.5-1.59Zm5.36-1.486c-.208.487-.36 1.007-.36 1.485 0 .879.672 1.591 1.5 1.591.829 0 1.5-.712 1.5-1.59 0-.448-.168-.978-.392-1.485C17.164 19.917 16.5 19 16.5 19s-.696.886-1.14 1.924Zm-2.485 6.485c0-.478.152-.998.36-1.485.443-1.038 1.138-1.924 1.138-1.924s.665.918 1.11 1.925c.223.507.391 1.037.392 1.484 0 .879-.671 1.591-1.5 1.591-.828 0-1.5-.712-1.5-1.59Zm7.485-6.485c-.208.487-.36 1.007-.36 1.485 0 .879.672 1.591 1.5 1.591.829 0 1.5-.712 1.5-1.59 0-.448-.168-.978-.392-1.485C22.164 19.917 21.5 19 21.5 19s-.696.886-1.14 1.924Zm-2.47 6.485c0-.478.152-.998.36-1.485.443-1.038 1.138-1.924 1.138-1.924s.665.918 1.11 1.925c.223.507.391 1.037.391 1.484 0 .879-.67 1.591-1.5 1.591-.828 0-1.5-.712-1.5-1.59Z" clip-rule="evenodd"/>
  <defs>
    <linearGradient id="a" x1="24.802" x2="24.802" y1="2" y2="12.315" gradientUnits="userSpaceOnUse">
      <stop stop-color="#F5BD52"/>
      <stop offset="1" stop-color="#F5DA79"/>
    </linearGradient>
    <linearGradient id="b" x1="16" x2="16" y1="2" y2="29" gradientUnits="userSpaceOnUse">
      <stop stop-color="#95B6F6"/>
      <stop offset="1" stop-color="#5193DE"/>
    </linearGradient>
  </defs>
</svg>
