<svg xmlns="http://www.w3.org/2000/svg" width="32" height="32" fill="none" viewBox="0 0 32 32">
  <path fill="url(#a)" fill-rule="evenodd" d="M15 2v3h2V2h-2Zm5.612 19.266a7 7 0 1 0-11.6-4.843 7.482 7.482 0 0 0-1.901.995 9 9 0 1 1 15.286 4.913 4.998 4.998 0 0 0-1.785-1.065ZM27 15h3v2h-3v-2Zm.624-6.866-2.598 1.5 1 1.732 2.598-1.5-1-1.732Zm-6.99-2.16 1.5-2.598 1.732 1-1.5 2.598-1.732-1Zm-12.5-1.598 1.5 2.598 1.732-1-1.5-2.598-1.732 1Zm-2.16 6.99-2.598-1.5 1-1.732 2.598 1.5-1 1.732ZM5 15H2v2h3v-2Zm22.624 8.866-2.598-1.5 1-1.732 2.598 1.5-1 1.732Z" clip-rule="evenodd"/>
  <path fill="url(#b)" fill-rule="evenodd" d="M11.5 28H19a3 3 0 1 0-2.002-5.234 5.487 5.487 0 0 0-.338-2.185A5 5 0 1 1 19 30l-.037-.001H11.5a7.5 7.5 0 1 1 7.08-9.983 4.991 4.991 0 0 0-1.924.565A5.502 5.502 0 0 0 6 22.5a5.5 5.5 0 0 0 5.5 5.5Z" clip-rule="evenodd"/>
  <defs>
    <linearGradient id="a" x1="16" x2="16" y1="2" y2="23.866" gradientUnits="userSpaceOnUse">
      <stop stop-color="#EFC977"/>
      <stop offset="1" stop-color="#E07256"/>
    </linearGradient>
    <linearGradient id="b" x1="14" x2="14" y1="15" y2="30" gradientUnits="userSpaceOnUse">
      <stop stop-color="#B2D4F7"/>
      <stop offset="1" stop-color="#D9E2F3"/>
    </linearGradient>
  </defs>
</svg>
