<svg width="50" height="50" viewBox="0 0 50 50" fill="none" xmlns="http://www.w3.org/2000/svg">
<path d="M24.871 5.2469L24.0466 6.5L23.222 5.2469C23.7224 4.9177 24.3706 4.9177 24.871 5.2469Z" fill="#3E5EFF"/>
<path fill-rule="evenodd" clip-rule="evenodd" d="M23.222 5.2469C23.222 5.2469 23.222 5.2469 24.0466 6.5C24.871 5.2469 24.871 5.2469 24.871 5.2469L24.873 5.24824L24.8764 5.2505L24.8874 5.25774L24.9254 5.28312C24.9578 5.30484 25.0042 5.33614 25.0634 5.37674C25.1822 5.45796 25.353 5.57652 25.5686 5.73046C25.9996 6.03824 26.6102 6.48812 27.3408 7.06446C28.7992 8.21526 30.7478 9.87988 32.7014 11.9336C36.55 15.9791 40.6828 21.81 40.6828 28.3636C40.6828 37.5516 33.2346 45 24.0466 45C14.8585 45 7.41016 37.5516 7.41016 28.3636C7.41016 21.81 11.543 15.9791 15.3915 11.9336C17.3452 9.87988 19.2938 8.21526 20.7524 7.06446C21.4828 6.48812 22.0934 6.03824 22.5244 5.73046C22.74 5.57652 22.9108 5.45796 23.0296 5.37674C23.089 5.33614 23.1352 5.30484 23.1676 5.28312L23.2056 5.25774L23.2166 5.2505L23.222 5.2469ZM24.0466 8.3312C23.6698 8.60456 23.18 8.97032 22.6106 9.41964C21.231 10.5081 19.3955 12.0772 17.5651 14.0013C13.8455 17.9113 10.4102 23.0122 10.4102 28.3636C10.4102 35.8948 16.5154 42 24.0466 42C31.5776 42 37.6828 35.8948 37.6828 28.3636C37.6828 23.0122 34.2476 17.9113 30.528 14.0013C28.6974 12.0772 26.862 10.5081 25.4824 9.41964C24.913 8.97032 24.4234 8.60456 24.0466 8.3312Z" fill="#3E5EFF"/>
</svg>
