<svg width="50" height="47" viewBox="0 0 50 47" fill="none" xmlns="http://www.w3.org/2000/svg">
<path d="M12.8206 17.3586C12.9609 11.6429 17.934 7.04999 24.0482 7.04999C30.1626 7.04999 35.1356 11.643 35.2758 17.3587C40.1844 17.7229 44.047 21.5826 44.047 26.2903C44.047 30.2524 41.3112 33.6138 37.5182 34.7963C37.701 33.956 37.7968 33.0861 37.7968 32.195C37.7968 31.9982 37.7922 31.8024 37.783 31.6077C39.7344 30.5459 41.047 28.5623 41.047 26.2903C41.047 22.8995 38.1228 20.1506 34.5156 20.1506H33.7788C32.9504 20.1506 32.2788 19.5195 32.2788 18.7407V17.6068C32.2788 13.3339 28.5938 9.86999 24.0482 9.86999C19.5026 9.86999 15.8176 13.3339 15.8176 17.6068V18.7407C15.8176 19.5195 15.146 20.1506 14.3176 20.1506H13.5784C9.97115 20.1506 7.04687 22.8995 7.04687 26.2903C7.04687 28.5621 8.35953 30.5459 10.3108 31.6077C10.3016 31.8023 10.2969 31.9982 10.2969 32.195C10.2969 33.0861 10.3928 33.956 10.5755 34.7963C6.7827 33.6136 4.04688 30.2524 4.04688 26.2903C4.04688 21.5818 7.91077 17.7216 12.8206 17.3586Z" fill="#3E5EFF"/>
<path fill-rule="evenodd" clip-rule="evenodd" d="M27.572 23.3588C27.514 22.817 27.1292 22.3549 26.5834 22.172C26.0378 21.9891 25.4286 22.1178 25.019 22.5031L15.0762 31.8491C14.6472 32.2524 14.5188 32.8589 14.751 33.3858C14.9832 33.9126 15.5301 34.2563 16.1368 34.2563H19.7968L20.5216 41.0312C20.5796 41.573 20.9646 42.0351 21.5102 42.2181C22.056 42.401 22.665 42.2722 23.0748 41.887L33.0176 32.5409C33.4466 32.1377 33.575 31.5312 33.3428 31.0042C33.1106 30.4775 32.5636 30.1338 31.957 30.1338H28.297L27.572 23.3588ZM21.1536 31.4363H19.7581L24.9036 26.5994L25.4478 31.685C25.5248 32.4054 26.17 32.9538 26.9402 32.9538H28.3356L23.19 37.7907L22.646 32.7051C22.5688 31.9847 21.9238 31.4363 21.1536 31.4363Z" fill="#3E5EFF"/>
</svg>
