<svg width="50" height="50" viewBox="0 0 50 50" fill="none" xmlns="http://www.w3.org/2000/svg">
<path fill-rule="evenodd" clip-rule="evenodd" d="M27.4874 6.33862C27.1444 6.91134 27.221 7.6419 27.6756 8.13084C30.0838 10.7212 31.5546 14.1891 31.5546 18.0039C31.5546 26.0142 25.061 32.5078 17.0508 32.5078C13.236 32.5078 9.76804 31.037 7.17772 28.6288C6.68876 28.1742 5.95822 28.0974 5.3855 28.4406C4.81278 28.7836 4.53576 29.464 4.7059 30.1096C6.96424 38.6792 14.7655 45 24.0468 45C35.0926 45 44.0468 36.0458 44.0468 25C44.0468 15.7186 37.726 7.91736 29.1564 5.65902C28.5108 5.48888 27.8306 5.76592 27.4874 6.33862ZM32.845 10.4504C37.762 13.4303 41.0468 18.8327 41.0468 25C41.0468 34.3888 33.4358 42 24.0468 42C17.8795 42 12.4771 38.715 9.4973 33.7982C11.7843 34.8938 14.3464 35.5078 17.0508 35.5078C26.718 35.5078 34.5546 27.671 34.5546 18.0039C34.5546 15.2995 33.9408 12.7374 32.845 10.4504Z" fill="#3E5EFF"/>
</svg>
