<svg width="50" height="50" viewBox="0 0 50 50" fill="none" xmlns="http://www.w3.org/2000/svg">
<path d="M15.2861 5.01719C16.1136 5.05471 16.7541 5.75601 16.7166 6.58359L16.7157 6.60357C16.6781 7.43115 15.9768 8.07161 15.1493 8.03409C14.3217 7.99655 13.6812 7.29525 13.7187 6.46767L13.7197 6.44769C13.7572 5.62011 14.4585 4.97965 15.2861 5.01719Z" fill="#3E5EFF"/>
<path d="M22.7368 8.50686C23.2954 9.11858 23.2524 10.0674 22.6408 10.626L22.626 10.6395C22.0142 11.1981 21.0654 11.1551 20.5068 10.5434C19.9482 9.93168 19.9912 8.9829 20.603 8.42426L20.6176 8.41076C21.2294 7.85212 22.1782 7.89514 22.7368 8.50686Z" fill="#3E5EFF"/>
<path d="M9.09139 20.969C9.65005 21.5806 9.60701 22.5294 8.99529 23.088L8.98053 23.1016C8.36881 23.6602 7.42003 23.6172 6.86139 23.0054C6.30273 22.3938 6.34577 21.445 6.95749 20.8862L6.97225 20.8728C7.58397 20.3142 8.53275 20.3572 9.09139 20.969Z" fill="#3E5EFF"/>
<path d="M5.51066 16.8365C6.33822 16.874 7.03954 16.2335 7.07706 15.406C7.11458 14.5784 6.47412 13.8771 5.64656 13.8396L5.62658 13.8387C4.799 13.8011 4.0977 14.4416 4.06016 15.2692C4.02264 16.0967 4.6631 16.798 5.49068 16.8356L5.51066 16.8365Z" fill="#3E5EFF"/>
<path d="M9.58661 10.0482C8.97489 10.6069 8.02611 10.5639 7.46747 9.95214L7.45397 9.93738C6.89533 9.32566 6.93835 8.37688 7.55007 7.81824C8.16179 7.25958 9.11057 7.3026 9.66921 7.91432L9.68271 7.9291C10.2413 8.54082 10.1983 9.4896 9.58661 10.0482Z" fill="#3E5EFF"/>
<path d="M11.6723 15.6143C11.7506 13.8875 13.214 12.551 14.9409 12.6294C16.0777 12.6809 17.0453 13.3327 17.5515 14.2648C18.3091 13.6075 19.1309 13.0224 20.006 12.5201C18.9749 10.8643 17.1727 9.72749 15.0768 9.63245C11.6948 9.47907 8.82878 12.0964 8.67542 15.4784C8.55478 18.1388 10.1486 20.48 12.4804 21.4326C12.6271 21.3812 12.7752 21.3328 12.9247 21.2876C13.2015 20.4142 13.5538 19.5745 13.9736 18.776C12.5915 18.3996 11.6047 17.1052 11.6723 15.6143Z" fill="#3E5EFF"/>
<path fill-rule="evenodd" clip-rule="evenodd" d="M27.7226 13.4688C34.302 13.4688 39.7232 18.5568 40.207 25.0212C42.5096 26.447 44.0468 28.9978 44.0468 31.9098C44.0468 36.382 40.4216 40.0072 35.9496 40.0072H16.1442C11.6722 40.0072 8.04688 36.382 8.04688 31.9098C8.04688 27.6948 11.2676 24.2318 15.3823 23.8478C16.3922 17.9513 21.5464 13.4688 27.7226 13.4688ZM37.242 25.9352C37.227 20.709 32.9614 16.4687 27.7226 16.4687C22.6642 16.4687 18.5115 20.4232 18.2196 25.4004C18.1731 26.1932 17.5165 26.8124 16.7222 26.8124H16.1442C13.329 26.8124 11.0469 29.0946 11.0469 31.9098C11.0469 34.725 13.329 37.0072 16.1442 37.0072H35.9496C38.7648 37.0072 41.0468 34.725 41.0468 31.9098C41.0468 29.8682 39.8464 28.1036 38.1064 27.2896C37.5804 27.0434 37.2436 26.516 37.242 25.9352Z" fill="#3E5EFF"/>
</svg>
