<svg width="50" height="50" viewBox="0 0 50 50" fill="none" xmlns="http://www.w3.org/2000/svg">
<path d="M12.8206 18.4666C12.9609 12.386 17.934 7.5 24.0482 7.5C30.1626 7.5 35.1356 12.3862 35.2758 18.4668C40.1844 18.8541 44.047 22.9602 44.047 27.9684C44.047 32.1834 41.3112 35.7594 37.5182 37.0174C37.701 36.1234 37.7968 35.198 37.7968 34.25C37.7968 34.0406 37.7922 33.8324 37.783 33.6252C39.7344 32.4956 41.047 30.3854 41.047 27.9684C41.047 24.3612 38.1228 21.4368 34.5156 21.4368H33.7788C32.9504 21.4368 32.2788 20.7654 32.2788 19.9369V18.7306C32.2788 14.185 28.5938 10.5 24.0482 10.5C19.5026 10.5 15.8176 14.185 15.8176 18.7306V19.9369C15.8176 20.7654 15.146 21.4368 14.3176 21.4368H13.5784C9.97115 21.4368 7.04687 24.3612 7.04687 27.9684C7.04687 30.3852 8.35953 32.4956 10.3108 33.6252C10.3016 33.8322 10.2969 34.0406 10.2969 34.25C10.2969 35.198 10.3928 36.1234 10.5755 37.0174C6.7827 35.7592 4.04688 32.1834 4.04688 27.9684C4.04688 22.9594 7.91077 18.8528 12.8206 18.4666Z" fill="#3E5EFF"/>
<path d="M17.637 29.34C17.637 28.5116 16.9654 27.84 16.137 27.84C15.3085 27.84 14.637 28.5116 14.637 29.34V42.16C14.637 42.9884 15.3085 43.66 16.137 43.66C16.9654 43.66 17.637 42.9884 17.637 42.16V29.34Z" fill="#3E5EFF"/>
<path d="M31.957 26.34C32.7854 26.34 33.457 27.0116 33.457 27.84V40.66C33.457 41.4884 32.7854 42.16 31.957 42.16C31.1286 42.16 30.457 41.4884 30.457 40.66V27.84C30.457 27.0116 31.1286 26.34 31.957 26.34Z" fill="#3E5EFF"/>
<path d="M25.547 26.34C25.547 25.5116 24.8754 24.84 24.047 24.84C23.2184 24.84 22.547 25.5116 22.547 26.34V39.16C22.547 39.9884 23.2184 40.66 24.047 40.66C24.8754 40.66 25.547 39.9884 25.547 39.16V26.34Z" fill="#3E5EFF"/>
</svg>
