<svg width="50" height="50" viewBox="0 0 50 50" fill="none" xmlns="http://www.w3.org/2000/svg">
<path d="M24.0468 5C24.8754 5 25.5468 5.67158 25.5468 6.5V9.5C25.5468 10.3284 24.8754 11 24.0468 11C23.2184 11 22.5468 10.3284 22.5468 9.5V6.5C22.5468 5.67158 23.2184 5 24.0468 5Z" fill="#FF9500"/>
<path fill-rule="evenodd" clip-rule="evenodd" d="M13.0469 25C13.0469 18.9249 17.9717 14 24.0468 14C30.122 14 35.0468 18.9249 35.0468 25C35.0468 31.0752 30.122 36 24.0468 36C17.9717 36 13.0469 31.0752 13.0469 25ZM24.0468 17C19.6286 17 16.0469 20.5818 16.0469 25C16.0469 29.4182 19.6286 33 24.0468 33C28.4652 33 32.0468 29.4182 32.0468 25C32.0468 20.5818 28.4652 17 24.0468 17Z" fill="#FF9500"/>
<path d="M38.1896 12.9825C38.7754 12.3967 38.7754 11.447 38.1896 10.8612C37.6038 10.2754 36.654 10.2754 36.0682 10.8612L33.947 12.9825C33.3612 13.5683 33.3612 14.5181 33.947 15.1039C34.5328 15.6896 35.4824 15.6896 36.0682 15.1039L38.1896 12.9825Z" fill="#FF9500"/>
<path d="M44.0468 25C44.0468 25.8284 43.3754 26.5 42.5468 26.5H39.5468C38.7184 26.5 38.0468 25.8284 38.0468 25C38.0468 24.1716 38.7184 23.5 39.5468 23.5H42.5468C43.3754 23.5 44.0468 24.1716 44.0468 25Z" fill="#FF9500"/>
<path d="M36.0682 39.1388C36.654 39.7246 37.6038 39.7246 38.1896 39.1388C38.7754 38.553 38.7754 37.6032 38.1896 37.0174L36.0682 34.8962C35.4824 34.3104 34.5328 34.3104 33.947 34.8962C33.3612 35.482 33.3612 36.4316 33.947 37.0174L36.0682 39.1388Z" fill="#FF9500"/>
<path d="M24.0468 39C24.8754 39 25.5468 39.6716 25.5468 40.5V43.5C25.5468 44.3284 24.8754 45 24.0468 45C23.2184 45 22.5468 44.3284 22.5468 43.5V40.5C22.5468 39.6716 23.2184 39 24.0468 39Z" fill="#FF9500"/>
<path d="M14.1466 37.0294C14.7324 36.4436 14.7324 35.4938 14.1466 34.908C13.5608 34.3224 12.6111 34.3224 12.0253 34.908L9.90397 37.0294C9.31819 37.6152 9.31819 38.565 9.90397 39.1508C10.4897 39.7366 11.4395 39.7366 12.0253 39.1508L14.1466 37.0294Z" fill="#FF9500"/>
<path d="M10.0469 25C10.0469 25.8284 9.3753 26.5 8.54688 26.5H5.54688C4.71843 26.5 4.04688 25.8284 4.04688 25C4.04688 24.1716 4.71843 23.5 5.54688 23.5H8.54688C9.3753 23.5 10.0469 24.1716 10.0469 25Z" fill="#FF9500"/>
<path d="M12.0253 15.0919C12.6111 15.6777 13.5608 15.6777 14.1466 15.0919C14.7324 14.5061 14.7324 13.5564 14.1466 12.9706L12.0253 10.8492C11.4395 10.2635 10.4897 10.2635 9.90397 10.8492C9.31819 11.435 9.31819 12.3848 9.90397 12.9706L12.0253 15.0919Z" fill="#FF9500"/>
</svg>
