<svg width="50" height="50" viewBox="0 0 50 50" fill="none" xmlns="http://www.w3.org/2000/svg">
<path d="M12.8206 18.4666C12.9609 12.386 17.934 7.5 24.0482 7.5C30.1626 7.5 35.1356 12.3862 35.2758 18.4668C40.1844 18.8541 44.047 22.9602 44.047 27.9684C44.047 32.1834 41.3112 35.7594 37.5182 37.0174C37.701 36.1234 37.7968 35.198 37.7968 34.25C37.7968 34.0406 37.7922 33.8324 37.783 33.6252C39.7344 32.4956 41.047 30.3854 41.047 27.9684C41.047 24.3612 38.1228 21.4368 34.5156 21.4368H33.7788C32.9504 21.4368 32.2788 20.7654 32.2788 19.9369V18.7306C32.2788 14.185 28.5938 10.5 24.0482 10.5C19.5026 10.5 15.8176 14.185 15.8176 18.7306V19.9369C15.8176 20.7654 15.146 21.4368 14.3176 21.4368H13.5784C9.97115 21.4368 7.04687 24.3612 7.04687 27.9684C7.04687 30.3852 8.35953 32.4956 10.3108 33.6252C10.3016 33.8322 10.2969 34.0406 10.2969 34.25C10.2969 35.198 10.3928 36.1234 10.5755 37.0174C6.7827 35.7592 4.04688 32.1834 4.04688 27.9684C4.04688 22.9594 7.91077 18.8528 12.8206 18.4666Z" fill="#3E5EFF"/>
<path fill-rule="evenodd" clip-rule="evenodd" d="M19.1367 23.5C18.4752 23.5 17.8918 23.9334 17.7007 24.5668L14.7007 34.5094C14.5636 34.9638 14.6496 35.4562 14.9326 35.8372C15.2156 36.2182 15.6622 36.4428 16.1367 36.4428H19.014V43.5C19.014 44.1066 19.3795 44.6536 19.94 44.8858C20.5006 45.118 21.1456 44.9896 21.5746 44.5606L33.0174 33.118C33.4464 32.689 33.5748 32.0438 33.3426 31.4832C33.1104 30.9228 32.5634 30.5572 31.9568 30.5572H27.5794V25C27.5794 24.1716 26.908 23.5 26.0794 23.5H19.1367ZM18.1561 33.4428L20.251 26.5H24.5794V32.0572C24.5794 32.455 24.7376 32.8366 25.0188 33.118C25.3002 33.3992 25.6816 33.5572 26.0794 33.5572H28.3354L22.014 39.8786V34.9428C22.014 34.1144 21.3424 33.4428 20.514 33.4428H18.1561Z" fill="#3E5EFF"/>
</svg>
