<svg xmlns="http://www.w3.org/2000/svg" width="32" height="32" fill="none" viewBox="0 0 32 32">
  <path fill="url(#a)" fill-rule="evenodd" d="M17.636 2v2.435h2V2h-2ZM30 12.364h-2.435v2H30v-2Zm-4.131-4.33 2.109-1.218 1 1.732-2.11 1.218-1-1.732Zm-2.417-5.012-1.217 2.11 1.732 1 1.217-2.11-1.732-1Zm-10.146 3.11-1.218-2.11 1.732-1 1.218 2.11-1.732 1Zm10.848 7.232a5.551 5.551 0 0 1-1.019 3.213 6.121 6.121 0 0 1 2.039.516 7.576 7.576 0 1 0-13.421-7.021h.008a9.39 9.39 0 0 1 2.145.247 5.576 5.576 0 0 1 10.248 3.045Z" clip-rule="evenodd"/>
  <path fill="url(#b)" fill-rule="evenodd" d="M12.5 28h10.504C25.698 27.998 28 25.715 28 22.75c0-2.966-2.304-5.25-5-5.25-.73 0-1.432.168-2.066.47a9.037 9.037 0 0 0-.479-1.976l.003-.001c-1.221-3.383-4.36-5.743-7.958-5.743-4.629 0-8.5 3.907-8.5 8.875S7.871 28 12.5 28Zm10.741 1.996C26.996 29.864 30 26.67 30 22.75c0-4.004-3.134-7.25-7-7.25-.198 0-.395.008-.589.025-1.434-4.237-5.33-7.275-9.911-7.275C6.701 8.25 2 13.119 2 19.125S6.701 30 12.5 30c.066 0 .132 0 .197-.002V30h10.544v-.004Z" clip-rule="evenodd"/>
  <path fill="url(#c)" fill-rule="evenodd" d="M17.636 2v2.435h2V2h-2ZM30 12.364h-2.435v2H30v-2Zm-4.131-4.33 2.109-1.218 1 1.732-2.11 1.218-1-1.732Zm-2.417-5.012-1.217 2.11 1.732 1 1.217-2.11-1.732-1Zm-10.146 3.11-1.218-2.11 1.732-1 1.218 2.11-1.732 1Zm10.848 7.232a5.551 5.551 0 0 1-1.019 3.213 6.121 6.121 0 0 1 2.039.516 7.576 7.576 0 1 0-13.421-7.021h.008a9.39 9.39 0 0 1 2.145.247 5.576 5.576 0 0 1 10.248 3.045Z" clip-rule="evenodd"/>
  <path fill="url(#d)" fill-rule="evenodd" d="M12.5 28h10.504C25.698 27.998 28 25.715 28 22.75c0-2.966-2.304-5.25-5-5.25-.73 0-1.432.168-2.066.47a9.037 9.037 0 0 0-.479-1.976l.003-.001c-1.221-3.383-4.36-5.743-7.958-5.743-4.629 0-8.5 3.907-8.5 8.875S7.871 28 12.5 28Zm10.741 1.996C26.996 29.864 30 26.67 30 22.75c0-4.004-3.134-7.25-7-7.25-.198 0-.395.008-.589.025-1.434-4.237-5.33-7.275-9.911-7.275C6.701 8.25 2 13.119 2 19.125S6.701 30 12.5 30c.066 0 .132 0 .197-.002V30h10.544v-.004Z" clip-rule="evenodd"/>
  <defs>
    <linearGradient id="a" x1="20.876" x2="20.876" y1="2" y2="17.093" gradientUnits="userSpaceOnUse">
      <stop stop-color="#EFC977"/>
      <stop offset="1" stop-color="#E07256"/>
    </linearGradient>
    <linearGradient id="b" x1="16" x2="16" y1="8.25" y2="30" gradientUnits="userSpaceOnUse">
      <stop stop-color="#B2D4F7"/>
      <stop offset="1" stop-color="#D9E2F3"/>
    </linearGradient>
    <linearGradient id="c" x1="20.876" x2="20.876" y1="2" y2="17.093" gradientUnits="userSpaceOnUse">
      <stop stop-color="#EFC977"/>
      <stop offset="1" stop-color="#E07256"/>
    </linearGradient>
    <linearGradient id="d" x1="16" x2="16" y1="8.25" y2="30" gradientUnits="userSpaceOnUse">
      <stop stop-color="#B2D4F7"/>
      <stop offset="1" stop-color="#D9E2F3"/>
    </linearGradient>
  </defs>
</svg>
