<svg xmlns="http://www.w3.org/2000/svg" width="32" height="32" fill="none" viewBox="0 0 32 32">
  <path fill="url(#a)" fill-rule="evenodd" d="M28.111 11.59a5.958 5.958 0 0 1-4 1.719 5.966 5.966 0 0 1-4.157-1.5 5.836 5.836 0 0 1-.67-8.044 5.948 5.948 0 0 1 1.827-1.47A11.64 11.64 0 0 0 18.502 2C12.152 2 7.004 7.099 7.004 13.388c0 1.385.25 2.713.707 3.94a6.504 6.504 0 0 1 1.803-.901 9.273 9.273 0 0 1-.51-3.04c0-4.555 3.293-8.376 7.68-9.215a7.805 7.805 0 0 0-.693 3.857 7.844 7.844 0 0 0 2.617 5.267 7.993 7.993 0 0 0 5.569 2.008 8.003 8.003 0 0 0 3.787-1.093c-.364 4.135-3.446 7.52-7.492 8.363.423.529.713 1.167.819 1.865C26.293 23.204 30 18.725 30 13.388c0-1.296-.22-2.54-.622-3.701a5.862 5.862 0 0 1-1.268 1.903Z" clip-rule="evenodd"/>
  <path fill="url(#b)" fill-rule="evenodd" d="M9.503 27.99h.02v.001h3.467v.002h.008v-.002h3.776l.017.002h.211V28h.003a3.001 3.001 0 1 0-2-5.239 5.392 5.392 0 0 0-.34-2.103l-.007.003a5.498 5.498 0 0 0-5.155-3.532C6.445 17.13 4 19.58 4 22.56s2.445 5.43 5.503 5.43Zm7.226 2.003a5.001 5.001 0 1 0-.174-9.975 7.502 7.502 0 0 0-7.052-4.889C5.359 15.13 2 18.456 2 22.56s3.359 7.43 7.503 7.43h.006v.003h7.22Z" clip-rule="evenodd"/>
  <defs>
    <linearGradient id="a" x1="18.502" x2="18.502" y1="2" y2="24.439" gradientUnits="userSpaceOnUse">
      <stop stop-color="#F5BD52"/>
      <stop offset="1" stop-color="#F5DA79"/>
    </linearGradient>
    <linearGradient id="b" x1="12.003" x2="12.003" y1="15.129" y2="30" gradientUnits="userSpaceOnUse">
      <stop stop-color="#B2D4F7"/>
      <stop offset="1" stop-color="#D9E2F3"/>
    </linearGradient>
  </defs>
</svg>
